<svg xmlns="http://www.w3.org/2000/svg" width="22" height="36" fill="none" viewBox="0 0 22 36">
  <g class="rocket" clip-path="url(#a)">
    <g class="Layer 2">
      <g class="Layer 1">
        <path fill="#4EA8DE" d="M11.021 2.933a22 22 0 0 1 4.734 13.883v1.198l1.031.628a6.439 6.439 0 0 1 2.8 3.525 12.39 12.39 0 0 0-1.303-.84l-2.75-1.543-.494 3.116a7.9 7.9 0 0 1-.172.818H7.162a13.127 13.127 0 0 1-.294-1.072l-.623-2.82-2.535 1.41c-.424.237-.833.498-1.225.783a6.7 6.7 0 0 1 2.757-3.525l.981-.628v-1.114c.018-5 1.707-9.857 4.806-13.819h-.008ZM11.03 0a.672.672 0 0 0-.437.162l-.065.057a24.711 24.711 0 0 0-6.445 16.526A8.787 8.787 0 0 0 .417 21.52a8.644 8.644 0 0 0 .3 5.977 9.709 9.709 0 0 1 4.067-4.4c.18.767.42 1.52.716 2.25.038.14.121.264.238.354a.68.68 0 0 0 .407.14h9.94c.2 0 .4-.191.501-.487a9.07 9.07 0 0 0 .602-2.165 9.63 9.63 0 0 1 4.067 4.4 8.416 8.416 0 0 0 .374-5.992 8.557 8.557 0 0 0-3.725-4.753c.07-6.136-2.21-12.072-6.388-16.625A.666.666 0 0 0 11.02 0h.008Z" class="Vector"/>
        <path fill="#4EA8DE" d="M11.022 16.16c-.55 0-1.088-.16-1.546-.461a2.752 2.752 0 0 1-1.026-1.227 2.704 2.704 0 0 1-.162-1.582 2.73 2.73 0 0 1 .756-1.405 2.8 2.8 0 0 1 1.421-.755 2.826 2.826 0 0 1 1.608.147c.51.205.946.553 1.255 1.001.308.448.475.976.48 1.518a2.635 2.635 0 0 1-.75 1.908 2.748 2.748 0 0 1-1.9.827.437.437 0 0 1-.136 0v.029Z" class="Vector"/>
        <path fill="#5E60CE" d="M14.896 27.596a1.364 1.364 0 0 0-.975.368 1.326 1.326 0 0 0-.414.943v4.16c0 .363.146.71.407.967a1.4 1.4 0 0 0 1.964 0c.26-.256.407-.604.407-.967v-4.103a1.305 1.305 0 0 0-.371-.958 1.345 1.345 0 0 0-.954-.41h-.064Z" class="Path 3417"/>
        <path fill="#5E60CE" d="M7.162 27.596a1.38 1.38 0 0 0-.999.357 1.34 1.34 0 0 0-.434.954v4.16c0 .363.147.71.407.967a1.4 1.4 0 0 0 1.965 0c.26-.256.407-.604.407-.967v-4.103a1.307 1.307 0 0 0-.371-.958 1.346 1.346 0 0 0-.954-.41h-.021Z" class="Path 3418"/>
        <path fill="#5E60CE" d="M10.921 27.596a1.378 1.378 0 0 0-.97.372 1.34 1.34 0 0 0-.419.94v5.731c0 .363.146.71.407.967a1.4 1.4 0 0 0 1.965 0c.26-.256.407-.604.407-.967V29a1.304 1.304 0 0 0-.372-.957 1.347 1.347 0 0 0-.953-.411l-.065-.035Z" class="Path 3419"/>
      </g>
    </g>
  </g>
  <defs>
    <clipPath id="a" class="a">
      <path fill="#fff" d="M0 0h22v36H0z"/>
    </clipPath>
  </defs>
</svg>
